<svg viewBox="0 0 24 24" xmlns="http://www.w3.org/2000/svg" role="img" aria-hidden="true">
  <title>GitHub</title>
  <path fill="currentColor" d="M12 .5C5.65.5.5 5.65.5 12c0 5.09 3.29 9.41 7.86 10.94.58.1.79-.25.79-.56 0-.28-.01-1.02-.02-2-3.2.7-3.88-1.54-3.88-1.54-.52-1.32-1.27-1.67-1.27-1.67-1.04-.71.08-.7.08-.7 1.15.08 1.76 1.18 1.76 1.18 1.02 1.75 2.67 1.25 3.32.96.1-.75.4-1.25.73-1.54-2.56-.29-5.26-1.28-5.26-5.7 0-1.26.45-2.29 1.18-3.1-.12-.29-.51-1.46.11-3.04 0 0 .96-.31 3.14 1.18.91-.25 1.9-.38 2.88-.38.98 0 1.97.13 2.88.38 2.18-1.5 3.14-1.18 3.14-1.18.62 1.58.23 2.76.11 3.04.74.81 1.18 1.84 1.18 3.1 0 4.43-2.71 5.41-5.29 5.7.42.36.79 1.08.79 2.18 0 1.57-.01 2.84-.01 3.22 0 .31.21.67.8.55C20.71 21.41 24 17.09 24 12 24 5.65 18.35.5 12 .5z"/>
</svg>
