<svg viewBox="0 0 24 24" xmlns="http://www.w3.org/2000/svg" role="img" aria-hidden="true">
  <title>LinkedIn</title>
  <path fill="currentColor" d="M20.447 20.452h-3.554v-5.569c0-1.328-.024-3.036-1.849-3.036-1.852 0-2.135 1.445-2.135 2.939v5.666H9.356V9h3.414v1.561h.049c.476-.9 1.637-1.849 3.369-1.849 3.602 0 4.267 2.37 4.267 5.456v6.284zM5.337 7.433c-1.144 0-2.07-.928-2.07-2.07 0-1.145.926-2.07 2.07-2.07 1.146 0 2.07.925 2.07 2.07 0 1.142-.924 2.07-2.07 2.07zM7.119 20.452H3.556V9h3.563v11.452z"/>
</svg>
